<?xml version="1.0" encoding="UTF-8" standalone="no"?>
<!-- Created with Inkscape (http://www.inkscape.org/) -->

<svg
   width="16"
   height="16"
   viewBox="0 0 4.2333332 4.2333333"
   version="1.1"
   id="svg1"
   xml:space="preserve"
   inkscape:version="1.3 (0e150ed6c4, 2023-07-21)"
   sodipodi:docname="pawn.svg"
   xmlns:inkscape="http://www.inkscape.org/namespaces/inkscape"
   xmlns:sodipodi="http://sodipodi.sourceforge.net/DTD/sodipodi-0.dtd"
   xmlns="http://www.w3.org/2000/svg"
   xmlns:svg="http://www.w3.org/2000/svg"><sodipodi:namedview
     id="namedview1"
     pagecolor="#505050"
     bordercolor="#eeeeee"
     borderopacity="1"
     inkscape:showpageshadow="0"
     inkscape:pageopacity="0"
     inkscape:pagecheckerboard="0"
     inkscape:deskcolor="#505050"
     inkscape:document-units="px"
     inkscape:zoom="47.612491"
     inkscape:cx="6.6789196"
     inkscape:cy="12.255187"
     inkscape:window-width="2560"
     inkscape:window-height="1377"
     inkscape:window-x="2552"
     inkscape:window-y="-8"
     inkscape:window-maximized="1"
     inkscape:current-layer="layer1" /><defs
     id="defs1" /><g
     inkscape:label="Layer 1"
     inkscape:groupmode="layer"
     id="layer1"><path
       style="display:inline;fill:#fc7f7f;fill-opacity:1;stroke-width:1.14329"
       d="m 0.60593418,3.9276075 0.002957,-0.3048594 0.037812,-0.076687 C 0.66749889,3.5038827 0.86104917,3.1210359 1.076814,2.6952902 1.2925788,2.2695445 1.4701262,1.9148262 1.4713637,1.9070275 1.472601,1.8992288 1.454086,1.8779595 1.4302189,1.8597625 1.3392531,1.7904071 1.2246982,1.6400756 1.1615758,1.5072195 0.91266667,0.98333132 1.1387912,0.3515614 1.6646483,0.10168424 c 0.5865472,-0.27871598 1.288976,0.0392608 1.4677163,0.66440844 0.069903,0.24448682 0.047969,0.51251052 -0.060652,0.74112682 -0.063122,0.1328561 -0.1776773,0.2831876 -0.2686431,0.352543 -0.023867,0.018197 -0.042382,0.039467 -0.041145,0.047265 0.00123,0.0078 0.1787848,0.362517 0.3945496,0.7882627 0.2157648,0.4257457 0.4093152,0.8085924 0.4301118,0.8507705 l 0.037812,0.076687 0.00296,0.3048594 0.00296,0.3048595 H 2.1166447 0.6029781 Z M 1.4418788,3.9057542 C 1.4995774,3.8626132 1.5062599,3.8441524 1.5128773,3.7096166 1.518205,3.6013502 1.5359901,3.5009359 1.647998,2.9468582 1.7326006,2.5283459 1.7751244,2.2983352 1.7715756,2.2784258 1.7606572,2.2171693 1.6831225,2.1692951 1.6203512,2.1850497 c -0.065769,0.016507 -0.064583,0.013761 -0.31849,0.7381764 -0.2360875,0.6735783 -0.238592,0.6815272 -0.2421877,0.7686863 -0.00454,0.1100293 0.00182,0.1445619 0.033591,0.1823155 0.041067,0.048806 0.068555,0.056046 0.202677,0.053391 0.1040934,-0.00206 0.1233015,-0.00494 0.1459373,-0.021865 z M 1.5832928,1.3219211 C 1.6603599,1.2869192 1.6853088,1.2284855 1.6696366,1.1196993 1.6491602,0.97756627 1.6949285,0.84287129 1.7990932,0.738706 1.9032586,0.63454071 2.0379535,0.58877306 2.1800866,0.60924939 c 0.086355,0.0124407 0.1271974,0.003027 0.1692289,-0.0390044 0.061804,-0.0618039 0.059965,-0.14997233 -0.00447,-0.21440848 -0.029655,-0.0296545 -0.044199,-0.0360606 -0.1052367,-0.0463555 -0.043557,-0.007347 -0.1072477,-0.009885 -0.1654276,-0.006593 -0.3888703,0.0219998 -0.6889031,0.32203258 -0.7109029,0.71090289 -0.010301,0.182032 0.019539,0.2692658 0.1054482,0.3082886 0.04793,0.021772 0.066342,0.021747 0.1145702,-1.576e-4 z"
       id="path1" /></g></svg>
